<?xml version="1.0" encoding="utf-8"?>
<!-- Generator: Adobe Illustrator 18.0.0, SVG Export Plug-In . SVG Version: 6.00 Build 0)  -->
<!DOCTYPE svg PUBLIC "-//W3C//DTD SVG 1.1//EN" "http://www.w3.org/Graphics/SVG/1.1/DTD/svg11.dtd">
<svg version="1.1" id="Layer_1" xmlns="http://www.w3.org/2000/svg" xmlns:xlink="http://www.w3.org/1999/xlink" x="0px" y="0px"
	 viewBox="0 0 300 300" enable-background="new 0 0 300 300" xml:space="preserve">
<g>
	<polygon fill="#222222" points="37.7,34.1 32,10.2 11.3,10.2 11.3,53.8 23.4,53.8 23.4,25.6 30.5,53.8 42.4,53.8 49.5,25.6 
		49.5,53.8 63.6,53.8 63.6,10.2 43.5,10.2 	"/>
	<rect x="107.6" y="10.2" fill="#222222" width="14.8" height="43.7"/>
	<path fill="#222222" d="M187.7,54.8c11.2,0,18.4-5.3,19.6-16.9l-13.6-1.4c-0.7,7.1-2.6,8.7-5.7,8.7c-3.9,0-6.1-3.1-6.1-13.2v-0.1
		c0-10.1,2.1-13.2,6.1-13.2c3.3,0,4.9,2.2,5.6,8.3l13.5-1.4c-1.3-9.9-7.1-16.5-19.3-16.5c-13.3,0-21.2,9-21.2,22.7v0.1
		C166.4,45.8,174.4,54.8,187.7,54.8z"/>
	<path fill="#222222" d="M260.7,46.4h12.7l1.9,7.4h15.4l-13.3-43.7h-18.5l-13.3,43.7h13.1L260.7,46.4z M267,22.3l3.7,14.3h-7.5
		L267,22.3z"/>
	<path fill="#222222" d="M26.9,133.1c5.7,0,9.5-2.2,11.4-6.6l0.8,5.7h10.7v-24.8H29.7v9.8h6.5v0.2c0,3.9-2.1,6.2-5.2,6.2
		c-4.6,0-6.5-3-6.5-13.2v-0.1c0-10.1,2.1-13.2,6.4-13.2c3.1,0,5.1,1.9,5.6,5.6l13-1.3c-1.2-8.9-7.2-13.8-19-13.8
		C16.7,87.6,9,96.8,9,110.3v0.1C9,125.8,16.9,133.1,26.9,133.1z"/>
	<path fill="#222222" d="M129.7,102.9c0-8.6-5.6-14.4-18-14.4h-21v43.7h14.8v-14.9h3.4l7.1,14.9h15.6l-9.5-18
		C127.3,111.8,129.7,108.2,129.7,102.9z M109,107.8h-3.5v-9.7h3.5c3.7,0,5.2,1.4,5.2,4.9C114.3,106.4,112.8,107.8,109,107.8z"/>
	<path fill="#222222" d="M180.7,88.5l-13.3,43.7h13.1l1.9-7.4h12.7l1.9,7.4h15.4l-13.3-43.7H180.7z M185.1,115l3.7-14.3l3.7,14.3
		H185.1z"/>
	<path fill="#222222" d="M271.2,88.5h-19.5v43.7h19.5c14.3,0,21.3-8.2,21.3-21.8v-0.1C292.5,96.7,285.5,88.5,271.2,88.5z
		 M277.1,110.4c0,9.2-1.9,12-8.4,12h-2.2V98.3h2.2c6.5,0,8.4,2.8,8.4,12V110.4z"/>
	<path fill="#222222" d="M35.5,181.9l-4.9-1c-2.6-0.5-3.6-1.2-3.6-2.5c0-1.4,1.3-2.4,4.3-2.4c3.5,0,7.7,1.6,11.4,4.5l6.4-8.8
		c-4.9-3.8-11.4-5.7-17.7-5.7c-13,0-19.6,6.5-19.6,14.7c0,7.5,4.6,11.9,12.7,13.5l4.9,1c3.4,0.7,4.6,1.7,4.6,3.2
		c0,1.6-1.4,2.8-4.2,2.8c-3.7,0-8.4-1.9-13.8-6.2l-6.7,9.2c4.6,4.3,12.7,7.4,21.6,7.4c11.7,0,19-6.8,19-15.2
		C49.9,189,46.1,184,35.5,181.9z"/>
	<polygon fill="#222222" points="100,194.5 109.6,194.5 109.6,210.6 124.4,210.6 124.4,166.9 109.6,166.9 109.6,182.7 100,182.7 
		100,166.9 85.2,166.9 85.2,210.6 100,210.6 	"/>
	<path fill="#222222" d="M200.3,188.8v-0.1c0-14.2-8.5-22.7-21.1-22.7c-12.6,0-21.1,8.5-21.1,22.7v0.1c0,14.2,8.5,22.7,21.1,22.7
		C191.8,211.5,200.3,203,200.3,188.8z M173.5,188.8v-0.1c0-9.7,2.1-13.2,5.7-13.2c3.6,0,5.7,3.5,5.7,13.2v0.1
		c0,9.7-2.1,13.2-5.7,13.2C175.5,202,173.5,198.5,173.5,188.8z"/>
	<polygon fill="#222222" points="262.5,186.4 266.7,210.6 285.2,210.6 293,166.9 279.9,166.9 276.3,196.4 271.2,166.9 256.1,166.9 
		250.9,196.4 247.3,166.9 231.9,166.9 239.7,210.6 258.2,210.6 	"/>
	<path fill="#222222" d="M47.6,258.3c0-8.1-5.7-14-17.7-14c-10.9,0-17.5,5.9-18.7,16.2l14.1,1.4c0.4-6.3,1.8-8,4.1-8
		c1.7,0,2.7,1.2,2.7,3.5c0,4.2-1.6,6.7-8.9,12l-11.1,8v11.5h35.1v-11.3H28.5l3.9-1.6C43.2,271.6,47.6,266.4,47.6,258.3z"/>
	<path fill="#222222" d="M108.7,244.3c-12.6,0-21.1,8.5-21.1,22.7v0.1c0,14.2,8.5,22.7,21.1,22.7s21.1-8.5,21.1-22.7V267
		C129.8,252.8,121.3,244.3,108.7,244.3z M114.4,267.2c0,9.7-2.1,13.2-5.7,13.2s-5.7-3.5-5.7-13.2V267c0-9.7,2.1-13.2,5.7-13.2
		s5.7,3.5,5.7,13.2V267.2z"/>
	<path fill="#222222" d="M198,245.3h-11.7c-3.9,2.2-7.3,3.7-11.7,5.3v11.2c2.7-0.7,6.1-1.7,8.6-2.9v18.8h-8.6v11.2h31.6v-11.2H198
		V245.3z"/>
	<path fill="#222222" d="M276.3,259.1c-4.1,0-7.6,1.7-10,4.7l0.3-7.7h20.9v-10.7h-32.3l-1.2,25l13.9,1.7c0.7-1.9,2-2.9,3.5-2.9
		c2.3,0,3.4,1.6,3.4,5.9c0,3.9-1.3,5.5-3.4,5.5c-2.1,0-3.8-1.6-4.2-6.4l-14.1,1.4c0.9,9.3,6.8,14.5,18.2,14.5c11.4,0,19-5.9,19-16.2
		C290.3,264.8,285.2,259.1,276.3,259.1z"/>
</g>
</svg>
